# xmcd
#
# Track frame offsets:
#  150
#  31480
#  53997
#  75090
#  103690
#  123225
#  142194
#  171150
#  189381
#  212809
#  237307
#  256553
#  278982
#  304222
#  327580
#
# Disc length: 4618 seconds
#
# Revision: 0
# Processed by: cddbd v1.5.1PL0 Copyright (c) Steve Scherf et al.
# Submitted via: Collectorz.com Music Collector 6.9
#
DISCID=d412080f
DTITLE=joe ely - House Of Blues, Nov 28th 1995 - Disc 1
DYEAR=1995
DGENRE=
TTITLE0=Gallo Del Cielo
TTITLE1=Ranches and Rivers
TTITLE2=Saint Valentine
TTITLE3=Boxcars
TTITLE4=The Road Goes On Forever
TTITLE5=I Saw It In You
TTITLE6=Behind The Bamboo Shade
TTITLE7=Me and Billy The Kid
TTITLE8=Silver City
TTITLE9=Run Preciosa
TTITLE10=Row Of Dominoes
TTITLE11=joe ely and jimmie dale gilmore - Bluebird
TTITLE12=Letter To Laredo
TTITLE13=Where Is My Love
TTITLE14=Give Me A Ride To Heaven
EXTD=
EXTT0=
EXTT1=
EXTT2=
EXTT3=
EXTT4=
EXTT5=
EXTT6=
EXTT7=
EXTT8=
EXTT9=
EXTT10=
EXTT11=
EXTT12=
EXTT13=
EXTT14=
PLAYORDER=
